<?xml version="1.0" encoding="UTF-8" standalone="no"?>
<!DOCTYPE svg PUBLIC "-//W3C//DTD SVG 1.1//EN"
 "http://www.w3.org/Graphics/SVG/1.1/DTD/svg11.dtd">
<!-- Generated by graphviz version 2.42.3 (0)
 -->
<!-- Title: G Pages: 1 -->
<svg width="587pt" height="727pt"
 viewBox="0.00 0.00 587.00 726.62" xmlns="http://www.w3.org/2000/svg" xmlns:xlink="http://www.w3.org/1999/xlink">
<g id="graph0" class="graph" transform="scale(1 1) rotate(0) translate(4 722.62)">
<title>G</title>
<polygon fill="white" stroke="transparent" points="-4,4 -4,-722.62 583,-722.62 583,4 -4,4"/>
<text text-anchor="middle" x="289.5" y="-299.8" font-family="Times,serif" font-size="14.00">Note: Highlit vertices are all connected to a fifteenth vertex ∗</text>
<text text-anchor="middle" x="289.5" y="-268.8" font-family="Times,serif" font-size="14.00"> &#160;&#160;&#160;Partitions are labeled counterclockwise starting from right</text>
<text text-anchor="middle" x="289.5" y="-237.8" font-family="Times,serif" font-size="14.00"> &#160;&#160;&#160;∗ is the partition given by the diagonals of a hexagon</text>
<text text-anchor="middle" x="289.5" y="-206.8" font-family="Times,serif" font-size="14.00"> &#160;&#160;&#160;The Ξi are the partitions given by cutting a hexagon in the i direction</text>
<text text-anchor="middle" x="289.5" y="-175.8" font-family="Times,serif" font-size="14.00"> &#160;&#160;&#160;The Hi are the partitions given by taking the i diagonal and connecting each</text>
<text text-anchor="middle" x="289.5" y="-160.8" font-family="Times,serif" font-size="14.00"> &#160;&#160;&#160;remaining vertex with its farthest neighbour</text>
<text text-anchor="middle" x="289.5" y="-129.8" font-family="Times,serif" font-size="14.00"> &#160;&#160;&#160;The xi are the partitions where i points to the pair of consecutive vertices</text>
<text text-anchor="middle" x="289.5" y="-114.8" font-family="Times,serif" font-size="14.00"> &#160;&#160;&#160;joined together and the remaining vertices are joined non&#45;consecutively</text>
<text text-anchor="middle" x="289.5" y="-83.8" font-family="Times,serif" font-size="14.00"> &#160;&#160;&#160;* &#160;&#160;* &#160;&#160;*</text>
<text text-anchor="middle" x="289.5" y="-52.8" font-family="Times,serif" font-size="14.00"> &#160;&#160;&#160;Consider a particular (2,4)&#45;partition. In case the 2 element is consecutive,</text>
<text text-anchor="middle" x="289.5" y="-37.8" font-family="Times,serif" font-size="14.00"> &#160;&#160;&#160;we must either be in a (∆,∇)/x or Ξ/x intersection case, with x unique.</text>
<text text-anchor="middle" x="289.5" y="-22.8" font-family="Times,serif" font-size="14.00"> &#160;&#160;&#160;Otherwise, we must be in a x/H case, with H unique and x one of two</text>
<text text-anchor="middle" x="289.5" y="-7.8" font-family="Times,serif" font-size="14.00"> &#160;&#160;&#160;consecutive angles.</text>
<!-- ∇ -->
<g id="node1" class="node">
<title>∇</title>
<ellipse fill="none" stroke="black" cx="244.18" cy="-550.17" rx="27" ry="18"/>
<text text-anchor="middle" x="244.18" y="-546.47" font-family="Times,serif" font-size="14.00">∇</text>
</g>
<!-- x↑ -->
<g id="node2" class="node">
<title>x↑</title>
<ellipse fill="none" stroke="black" cx="174.52" cy="-439.65" rx="27" ry="18"/>
<text text-anchor="middle" x="174.52" y="-435.95" font-family="Times,serif" font-size="14.00">x↑</text>
</g>
<!-- ∇&#45;&#45;x↑ -->
<g id="edge1" class="edge">
<title>∇&#45;&#45;x↑</title>
<path fill="none" stroke="black" d="M233.6,-533.38C220.51,-512.61 198.34,-477.44 185.2,-456.6"/>
<text text-anchor="middle" x="179.9" y="-483.79" font-family="Times,serif" font-size="14.00">23|1456</text>
</g>
<!-- x↙ -->
<g id="node3" class="node">
<title>x↙</title>
<ellipse fill="none" stroke="black" cx="359.96" cy="-540.9" rx="27" ry="18"/>
<text text-anchor="middle" x="359.96" y="-537.2" font-family="Times,serif" font-size="14.00">x↙</text>
</g>
<!-- ∇&#45;&#45;x↙ -->
<g id="edge2" class="edge">
<title>∇&#45;&#45;x↙</title>
<path fill="none" stroke="black" d="M271.03,-548.02C289.6,-546.53 314.23,-544.56 332.85,-543.07"/>
<text text-anchor="middle" x="301.94" y="-534.35" font-family="Times,serif" font-size="14.00">45|1236</text>
</g>
<!-- x↘ -->
<g id="node4" class="node">
<title>x↘</title>
<ellipse fill="none" stroke="black" cx="189.19" cy="-638.22" rx="27" ry="18"/>
<text text-anchor="middle" x="189.19" y="-634.52" font-family="Times,serif" font-size="14.00">x↘</text>
</g>
<!-- ∇&#45;&#45;x↘ -->
<g id="edge3" class="edge">
<title>∇&#45;&#45;x↘</title>
<path fill="none" stroke="black" d="M233.58,-567.15C223.78,-582.84 209.3,-606.01 199.58,-621.59"/>
<text text-anchor="middle" x="231.33" y="-583.17" font-family="Times,serif" font-size="14.00">16|2345</text>
</g>
<!-- Ξ&#45; -->
<g id="node5" class="node">
<title>Ξ&#45;</title>
<ellipse fill="gray" stroke="black" cx="121.38" cy="-333" rx="27" ry="18"/>
<text text-anchor="middle" x="121.38" y="-329.3" font-family="Times,serif" font-size="14.00">Ξ&#45;</text>
</g>
<!-- x↑&#45;&#45;Ξ&#45; -->
<g id="edge7" class="edge">
<title>x↑&#45;&#45;Ξ&#45;</title>
<path fill="none" stroke="red" d="M165.98,-422.52C156.06,-402.61 139.8,-369.98 129.89,-350.09"/>
<text text-anchor="middle" x="118.44" y="-390.11" font-family="Times,serif" font-size="14.00" fill="red">23|1456</text>
</g>
<!-- H⧵ -->
<g id="node9" class="node">
<title>H⧵</title>
<ellipse fill="gray" stroke="black" cx="135.61" cy="-516.75" rx="27" ry="18"/>
<text text-anchor="middle" x="135.61" y="-513.05" font-family="Times,serif" font-size="14.00">H⧵</text>
</g>
<!-- x↑&#45;&#45;H⧵ -->
<g id="edge10" class="edge">
<title>x↑&#45;&#45;H⧵</title>
<path fill="none" stroke="red" d="M165.88,-456.76C159.44,-469.54 150.66,-486.92 144.22,-499.69"/>
<text text-anchor="middle" x="125.55" y="-467.02" font-family="Times,serif" font-size="14.00" fill="red">15|2346</text>
</g>
<!-- H/ -->
<g id="node10" class="node">
<title>H/</title>
<ellipse fill="gray" stroke="black" cx="293.54" cy="-428.27" rx="27" ry="18"/>
<text text-anchor="middle" x="293.54" y="-424.57" font-family="Times,serif" font-size="14.00">H/</text>
</g>
<!-- x↑&#45;&#45;H/ -->
<g id="edge11" class="edge">
<title>x↑&#45;&#45;H/</title>
<path fill="none" stroke="red" d="M201.53,-437.07C221.01,-435.21 247.19,-432.7 266.64,-430.84"/>
<text text-anchor="middle" x="234.08" y="-422.75" font-family="Times,serif" font-size="14.00" fill="red">46|1235</text>
</g>
<!-- Ξ⧵ -->
<g id="node6" class="node">
<title>Ξ⧵</title>
<ellipse fill="gray" stroke="black" cx="463.23" cy="-516.95" rx="27" ry="18"/>
<text text-anchor="middle" x="463.23" y="-513.25" font-family="Times,serif" font-size="14.00">Ξ⧵</text>
</g>
<!-- x↙&#45;&#45;Ξ⧵ -->
<g id="edge8" class="edge">
<title>x↙&#45;&#45;Ξ⧵</title>
<path fill="none" stroke="red" d="M385.49,-534.98C401.38,-531.3 421.74,-526.58 437.64,-522.89"/>
<text text-anchor="middle" x="396.82" y="-517.74" font-family="Times,serif" font-size="14.00" fill="red">45|1236</text>
</g>
<!-- H&#45; -->
<g id="node8" class="node">
<title>H&#45;</title>
<ellipse fill="gray" stroke="black" cx="293.58" cy="-605.84" rx="27" ry="18"/>
<text text-anchor="middle" x="293.58" y="-602.14" font-family="Times,serif" font-size="14.00">H&#45;</text>
</g>
<!-- x↙&#45;&#45;H&#45; -->
<g id="edge13" class="edge">
<title>x↙&#45;&#45;H&#45;</title>
<path fill="none" stroke="red" d="M344.57,-555.97C333.84,-566.46 319.6,-580.39 308.89,-590.86"/>
<text text-anchor="middle" x="356.23" y="-577.21" font-family="Times,serif" font-size="14.00" fill="red">26|1345</text>
</g>
<!-- x↙&#45;&#45;H/ -->
<g id="edge12" class="edge">
<title>x↙&#45;&#45;H/</title>
<path fill="none" stroke="red" d="M349.87,-523.8C337.32,-502.5 316.01,-466.36 303.51,-445.16"/>
<text text-anchor="middle" x="297.19" y="-488.28" font-family="Times,serif" font-size="14.00" fill="red">13|2456</text>
</g>
<!-- Ξ/ -->
<g id="node7" class="node">
<title>Ξ/</title>
<ellipse fill="gray" stroke="black" cx="121.11" cy="-700.62" rx="27" ry="18"/>
<text text-anchor="middle" x="121.11" y="-696.92" font-family="Times,serif" font-size="14.00">Ξ/</text>
</g>
<!-- x↘&#45;&#45;Ξ/ -->
<g id="edge9" class="edge">
<title>x↘&#45;&#45;Ξ/</title>
<path fill="none" stroke="red" d="M173.06,-653.01C162.21,-662.95 147.96,-676.01 137.13,-685.94"/>
<text text-anchor="middle" x="125.59" y="-658.27" font-family="Times,serif" font-size="14.00" fill="red">16|2345</text>
</g>
<!-- x↘&#45;&#45;H&#45; -->
<g id="edge14" class="edge">
<title>x↘&#45;&#45;H&#45;</title>
<path fill="none" stroke="red" d="M213.93,-630.55C230.57,-625.38 252.42,-618.61 269.02,-613.46"/>
<text text-anchor="middle" x="270.97" y="-625.8" font-family="Times,serif" font-size="14.00" fill="red">35|1246</text>
</g>
<!-- x↘&#45;&#45;H⧵ -->
<g id="edge15" class="edge">
<title>x↘&#45;&#45;H⧵</title>
<path fill="none" stroke="red" d="M181.52,-620.81C171.33,-597.72 153.45,-557.19 143.28,-534.12"/>
<text text-anchor="middle" x="132.9" y="-566.27" font-family="Times,serif" font-size="14.00" fill="red">24|1356</text>
</g>
<!-- x↗ -->
<g id="node11" class="node">
<title>x↗</title>
<ellipse fill="none" stroke="black" cx="359.8" cy="-492.68" rx="27" ry="18"/>
<text text-anchor="middle" x="359.8" y="-488.98" font-family="Times,serif" font-size="14.00">x↗</text>
</g>
<!-- x↗&#45;&#45;Ξ⧵ -->
<g id="edge17" class="edge">
<title>x↗&#45;&#45;Ξ⧵</title>
<path fill="none" stroke="green" d="M385.37,-498.68C401.28,-502.42 421.68,-507.2 437.6,-510.94"/>
<text text-anchor="middle" x="426.23" y="-493.61" font-family="Times,serif" font-size="14.00" fill="green">12|3456</text>
</g>
<!-- x↗&#45;&#45;H&#45; -->
<g id="edge22" class="edge">
<title>x↗&#45;&#45;H&#45;</title>
<path fill="none" stroke="green" d="M349.74,-509.87C337.22,-531.26 315.98,-567.57 303.51,-588.86"/>
<text text-anchor="middle" x="297.13" y="-553.17" font-family="Times,serif" font-size="14.00" fill="green">35|1246</text>
</g>
<!-- x↗&#45;&#45;H/ -->
<g id="edge21" class="edge">
<title>x↗&#45;&#45;H/</title>
<path fill="none" stroke="green" d="M344.43,-477.74C333.73,-467.34 319.51,-453.51 308.83,-443.13"/>
<text text-anchor="middle" x="356.13" y="-449.23" font-family="Times,serif" font-size="14.00" fill="green">46|1235</text>
</g>
<!-- ∆ -->
<g id="node12" class="node">
<title>∆</title>
<ellipse fill="none" stroke="black" cx="243.96" cy="-483.64" rx="27" ry="18"/>
<text text-anchor="middle" x="243.96" y="-479.94" font-family="Times,serif" font-size="14.00">∆</text>
</g>
<!-- x↗&#45;&#45;∆ -->
<g id="edge4" class="edge">
<title>x↗&#45;&#45;∆</title>
<path fill="none" stroke="black" d="M332.93,-490.59C314.35,-489.13 289.72,-487.21 271.09,-485.76"/>
<text text-anchor="middle" x="302.01" y="-476.97" font-family="Times,serif" font-size="14.00">12|3456</text>
</g>
<!-- x↖ -->
<g id="node13" class="node">
<title>x↖</title>
<ellipse fill="none" stroke="black" cx="174.27" cy="-594.21" rx="27" ry="18"/>
<text text-anchor="middle" x="174.27" y="-590.51" font-family="Times,serif" font-size="14.00">x↖</text>
</g>
<!-- x↖&#45;&#45;Ξ/ -->
<g id="edge18" class="edge">
<title>x↖&#45;&#45;Ξ/</title>
<path fill="none" stroke="green" d="M165.73,-611.31C155.87,-631.05 139.73,-663.34 129.81,-683.21"/>
<text text-anchor="middle" x="118.27" y="-636.06" font-family="Times,serif" font-size="14.00" fill="green">34|1256</text>
</g>
<!-- x↖&#45;&#45;H&#45; -->
<g id="edge23" class="edge">
<title>x↖&#45;&#45;H&#45;</title>
<path fill="none" stroke="green" d="M201.04,-596.82C220.56,-598.72 246.89,-601.29 266.48,-603.2"/>
<text text-anchor="middle" x="204.26" y="-603.81" font-family="Times,serif" font-size="14.00" fill="green">26|1345</text>
</g>
<!-- x↖&#45;&#45;H⧵ -->
<g id="edge24" class="edge">
<title>x↖&#45;&#45;H⧵</title>
<path fill="none" stroke="green" d="M165.69,-577.02C159.28,-564.18 150.57,-546.72 144.17,-533.89"/>
<text text-anchor="middle" x="125.43" y="-544.26" font-family="Times,serif" font-size="14.00" fill="green">15|2346</text>
</g>
<!-- x↖&#45;&#45;∆ -->
<g id="edge5" class="edge">
<title>x↖&#45;&#45;∆</title>
<path fill="none" stroke="black" d="M184.85,-577.42C197.95,-556.64 220.13,-521.45 233.28,-500.59"/>
<text text-anchor="middle" x="194.32" y="-527.8" font-family="Times,serif" font-size="14.00">34|1256</text>
</g>
<!-- x↓ -->
<g id="node14" class="node">
<title>x↓</title>
<ellipse fill="none" stroke="black" cx="189.1" cy="-395.45" rx="27" ry="18"/>
<text text-anchor="middle" x="189.1" y="-391.75" font-family="Times,serif" font-size="14.00">x↓</text>
</g>
<!-- x↓&#45;&#45;Ξ&#45; -->
<g id="edge16" class="edge">
<title>x↓&#45;&#45;Ξ&#45;</title>
<path fill="none" stroke="green" d="M173.05,-380.65C162.26,-370.7 148.08,-357.63 137.31,-347.69"/>
<text text-anchor="middle" x="125.68" y="-367.97" font-family="Times,serif" font-size="14.00" fill="green">56|1234</text>
</g>
<!-- x↓&#45;&#45;H⧵ -->
<g id="edge19" class="edge">
<title>x↓&#45;&#45;H⧵</title>
<path fill="none" stroke="green" d="M181.44,-412.83C171.27,-435.89 153.42,-476.36 143.26,-499.4"/>
<text text-anchor="middle" x="191.85" y="-459.91" font-family="Times,serif" font-size="14.00" fill="green">24|1356</text>
</g>
<!-- x↓&#45;&#45;H/ -->
<g id="edge20" class="edge">
<title>x↓&#45;&#45;H/</title>
<path fill="none" stroke="green" d="M213.59,-403.14C230.23,-408.37 252.16,-415.26 268.85,-420.51"/>
<text text-anchor="middle" x="255.97" y="-400.63" font-family="Times,serif" font-size="14.00" fill="green">13|2456</text>
</g>
<!-- x↓&#45;&#45;∆ -->
<g id="edge6" class="edge">
<title>x↓&#45;&#45;∆</title>
<path fill="none" stroke="black" d="M199.68,-412.45C209.46,-428.17 223.9,-451.38 233.6,-466.98"/>
<text text-anchor="middle" x="246.14" y="-443.52" font-family="Times,serif" font-size="14.00">56|1234</text>
</g>
</g>
</svg>
